# xmcd
#
# Track frame offsets: 
#        150
#        16626
#        33238
#        42090
#        69006
#        89345
#        98556
#        118608
#        132644
#        148415
#        162855
#        173434
#        187323
#        200751
#        216800
#        234423
#        243395
#        266525
#        278294
#
# Disc length: 3830 seconds
#
# Revision: 0
# Processed by: cddbd v1.4PL0 Copyright (c) Steve Scherf et al.
# Submitted via: ExactAudioCopy v0.95a1
#
DISCID=020ef413
DTITLE=Preston Love - Preston Love
DYEAR=2003
DGENRE=Blues
TTITLE0=The Blues I Like To Hear
TTITLE1=Tangerine
TTITLE2=I'll Get By
TTITLE3=Summertime
TTITLE4=Take The "A" Train
TTITLE5=When Your Lover Has Gone
TTITLE6=Strictly Cash
TTITLE7=O-Town Blues
TTITLE8=Here's That Rainy Day
TTITLE9=Lonely Street
TTITLE10=I'll Get By (original version)
TTITLE11=One O'Clock Jump - Jimmy's Idea
TTITLE12=Take Me Back, Baby
TTITLE13=Jumpin' At The Woodside
TTITLE14=Cream Dream
TTITLE15=Cool Ade
TTITLE16=Shuggie's Chittlin' Blues
TTITLE17=Cissy Popcorn
TTITLE18=Funky Chicken
EXTD=
EXTT0=
EXTT1=
EXTT2=
EXTT3=
EXTT4=
EXTT5=
EXTT6=
EXTT7=
EXTT8=
EXTT9=
EXTT10=
EXTT11=
EXTT12=
EXTT13=
EXTT14=
EXTT15=
EXTT16=
EXTT17=
EXTT18=
PLAYORDER=
